<svg xmlns="http://www.w3.org/2000/svg" viewBox="0 0 1169 469" width="1169" height="469">
<g fill="#2563eb" fill-rule="evenodd">
  <path d="M 900 261 L 900 348 L 909 348 L 909 312 L 910 311 L 927 311 L 929 313 L 929 314 L 930 315 L 930 316 L 931 317 L 931 318 L 932 319 L 932 320 L 933 321 L 933 322 L 934 323 L 934 324 L 935 325 L 935 326 L 936 327 L 936 328 L 937 329 L 937 330 L 938 331 L 938 332 L 939 333 L 939 334 L 940 335 L 940 336 L 941 337 L 941 338 L 942 339 L 942 340 L 943 341 L 943 342 L 944 343 L 944 344 L 945 345 L 945 346 L 947 348 L 956 348 L 957 347 L 955 345 L 955 344 L 954 343 L 954 342 L 953 341 L 953 340 L 952 339 L 952 338 L 951 337 L 951 336 L 950 335 L 950 334 L 949 333 L 949 332 L 948 331 L 948 330 L 947 329 L 947 328 L 946 327 L 946 326 L 945 325 L 945 324 L 944 323 L 944 322 L 943 321 L 943 320 L 942 319 L 942 318 L 941 317 L 941 316 L 940 315 L 940 314 L 939 313 L 939 312 L 938 311 L 940 309 L 941 309 L 942 308 L 943 308 L 944 307 L 945 307 L 946 306 L 947 306 L 951 302 L 951 301 L 953 299 L 953 298 L 954 297 L 954 295 L 955 294 L 955 289 L 956 288 L 956 283 L 955 282 L 955 278 L 954 277 L 954 275 L 953 274 L 953 273 L 952 272 L 952 271 L 947 266 L 946 266 L 944 264 L 943 264 L 942 263 L 940 263 L 939 262 L 936 262 L 935 261 Z M 909 269 L 910 268 L 931 268 L 932 269 L 935 269 L 936 270 L 938 270 L 940 272 L 941 272 L 943 274 L 943 275 L 945 277 L 945 278 L 946 279 L 946 283 L 947 284 L 947 288 L 946 289 L 946 292 L 945 293 L 945 295 L 938 302 L 937 302 L 936 303 L 933 303 L 932 304 L 910 304 L 909 303 Z"/>
  <path d="M 801 261 L 801 322 L 802 323 L 802 327 L 803 328 L 803 330 L 804 331 L 804 333 L 805 334 L 805 335 L 807 337 L 807 338 L 813 344 L 814 344 L 815 345 L 816 345 L 817 346 L 818 346 L 819 347 L 821 347 L 822 348 L 826 348 L 827 349 L 839 349 L 840 348 L 843 348 L 844 347 L 846 347 L 847 346 L 848 346 L 849 345 L 850 345 L 851 344 L 852 344 L 859 337 L 859 336 L 860 335 L 860 334 L 861 333 L 861 332 L 862 331 L 862 329 L 863 328 L 863 324 L 864 323 L 864 261 L 855 261 L 855 324 L 854 325 L 854 328 L 853 329 L 853 330 L 852 331 L 852 332 L 846 338 L 845 338 L 844 339 L 843 339 L 842 340 L 840 340 L 839 341 L 827 341 L 826 340 L 823 340 L 822 339 L 821 339 L 819 337 L 818 337 L 815 334 L 815 333 L 813 331 L 813 330 L 812 329 L 812 328 L 811 327 L 811 324 L 810 323 L 810 261 Z"/>
  <path d="M 601 261 L 601 348 L 654 348 L 654 340 L 611 340 L 610 339 L 610 309 L 611 308 L 650 308 L 650 300 L 611 300 L 610 299 L 610 269 L 611 268 L 654 268 L 654 261 Z"/>
  <path d="M 507 433 L 506 433 L 505 432 L 505 429 L 504 428 L 504 427 L 503 426 L 503 424 L 501 422 L 501 421 L 500 420 L 500 418 L 499 417 L 499 415 L 497 413 L 497 412 L 496 411 L 496 409 L 495 408 L 495 407 L 494 406 L 494 405 L 493 404 L 493 403 L 491 401 L 491 399 L 490 398 L 490 397 L 488 395 L 488 393 L 487 392 L 487 390 L 485 388 L 485 387 L 484 386 L 484 385 L 483 384 L 483 382 L 482 381 L 482 380 L 480 378 L 480 375 L 478 373 L 478 372 L 477 371 L 477 369 L 476 368 L 476 367 L 474 365 L 474 364 L 473 363 L 473 362 L 472 361 L 472 360 L 471 359 L 471 356 L 470 355 L 470 354 L 468 352 L 468 350 L 467 349 L 467 348 L 466 347 L 466 346 L 465 345 L 465 343 L 463 341 L 463 339 L 462 338 L 462 337 L 461 336 L 461 335 L 459 333 L 459 331 L 458 330 L 458 329 L 457 328 L 457 326 L 456 325 L 456 324 L 455 323 L 455 322 L 454 321 L 454 320 L 453 319 L 453 318 L 451 316 L 451 314 L 450 313 L 450 312 L 449 311 L 449 310 L 448 309 L 448 308 L 447 307 L 447 306 L 446 305 L 446 304 L 445 303 L 445 301 L 444 300 L 444 299 L 442 297 L 442 295 L 441 294 L 441 293 L 440 292 L 440 291 L 438 289 L 438 288 L 437 287 L 437 285 L 439 283 L 439 282 L 440 281 L 440 280 L 441 279 L 441 278 L 442 277 L 442 275 L 443 274 L 443 273 L 444 272 L 445 272 L 452 265 L 452 262 L 451 262 L 450 261 L 448 261 L 447 262 L 445 262 L 444 263 L 440 263 L 439 264 L 432 264 L 431 265 L 427 265 L 426 266 L 424 266 L 423 267 L 421 267 L 420 268 L 416 268 L 415 269 L 412 269 L 411 270 L 409 270 L 408 271 L 405 271 L 404 272 L 401 272 L 400 273 L 396 273 L 395 274 L 392 274 L 390 276 L 386 276 L 385 277 L 383 277 L 382 278 L 380 278 L 379 279 L 378 279 L 377 280 L 375 280 L 374 281 L 371 281 L 370 282 L 367 282 L 365 284 L 362 284 L 361 285 L 358 285 L 357 286 L 355 286 L 354 287 L 353 287 L 352 288 L 350 288 L 349 289 L 347 289 L 346 290 L 343 290 L 342 291 L 340 291 L 338 293 L 335 293 L 334 294 L 332 294 L 330 296 L 328 296 L 327 297 L 325 297 L 324 298 L 322 298 L 321 299 L 320 299 L 319 300 L 318 300 L 317 301 L 314 301 L 313 302 L 311 302 L 310 303 L 309 303 L 308 304 L 307 304 L 306 305 L 304 305 L 303 306 L 301 306 L 299 308 L 297 308 L 296 309 L 295 309 L 294 310 L 292 310 L 291 311 L 289 311 L 288 312 L 287 312 L 286 313 L 284 313 L 283 314 L 282 314 L 281 315 L 280 315 L 279 316 L 278 316 L 277 317 L 276 317 L 275 318 L 272 318 L 271 319 L 270 319 L 269 320 L 268 320 L 267 321 L 266 321 L 265 322 L 264 322 L 263 323 L 262 323 L 261 324 L 259 324 L 257 326 L 255 326 L 254 327 L 253 327 L 251 329 L 250 329 L 249 330 L 247 330 L 244 333 L 243 333 L 242 334 L 240 334 L 239 335 L 238 335 L 237 336 L 236 336 L 234 338 L 232 338 L 231 339 L 230 339 L 229 340 L 228 340 L 227 341 L 226 341 L 225 342 L 224 342 L 223 343 L 222 343 L 221 344 L 220 344 L 219 345 L 218 345 L 217 346 L 215 346 L 213 348 L 212 348 L 210 350 L 209 350 L 208 351 L 207 351 L 205 353 L 203 353 L 201 355 L 200 355 L 199 356 L 198 356 L 197 357 L 196 357 L 195 358 L 194 358 L 192 360 L 191 360 L 190 361 L 189 361 L 187 363 L 186 363 L 185 364 L 184 364 L 183 365 L 182 365 L 180 367 L 178 367 L 176 369 L 175 369 L 172 372 L 171 372 L 170 373 L 169 373 L 168 374 L 167 374 L 165 376 L 164 376 L 162 378 L 161 378 L 158 381 L 157 381 L 156 382 L 155 382 L 153 384 L 152 384 L 150 386 L 149 386 L 148 387 L 147 387 L 147 388 L 146 389 L 145 389 L 144 390 L 143 390 L 143 391 L 142 392 L 141 392 L 140 393 L 139 393 L 139 394 L 138 395 L 137 395 L 136 396 L 135 396 L 131 400 L 130 400 L 129 401 L 128 401 L 128 402 L 127 403 L 125 403 L 122 406 L 121 406 L 117 410 L 116 410 L 114 412 L 113 412 L 111 414 L 111 415 L 110 416 L 109 416 L 106 419 L 105 419 L 94 430 L 93 430 L 84 439 L 84 440 L 78 446 L 78 447 L 75 450 L 75 451 L 72 454 L 72 455 L 71 456 L 71 458 L 72 459 L 73 459 L 75 461 L 76 460 L 77 461 L 101 461 L 102 460 L 107 460 L 108 459 L 118 459 L 119 458 L 123 458 L 124 457 L 126 457 L 127 456 L 133 456 L 134 455 L 138 455 L 139 454 L 141 454 L 142 453 L 145 453 L 146 452 L 149 452 L 150 451 L 154 451 L 155 450 L 157 450 L 158 449 L 161 449 L 163 447 L 166 447 L 167 446 L 169 446 L 170 445 L 172 445 L 173 444 L 174 444 L 175 443 L 178 443 L 179 442 L 181 442 L 182 441 L 184 441 L 186 439 L 189 439 L 190 438 L 193 438 L 194 437 L 195 437 L 197 435 L 199 435 L 200 434 L 202 434 L 203 433 L 205 433 L 207 431 L 209 431 L 210 430 L 213 430 L 214 429 L 215 429 L 216 428 L 217 428 L 218 427 L 219 427 L 220 426 L 221 426 L 222 425 L 223 425 L 224 424 L 226 424 L 228 422 L 230 422 L 231 421 L 232 421 L 234 419 L 236 419 L 237 418 L 238 418 L 239 417 L 240 417 L 241 416 L 243 416 L 245 414 L 246 414 L 247 413 L 248 413 L 249 412 L 250 412 L 252 410 L 255 410 L 258 407 L 260 407 L 261 406 L 262 406 L 263 405 L 264 405 L 265 404 L 266 404 L 267 403 L 268 403 L 269 402 L 271 402 L 273 400 L 274 400 L 276 398 L 278 398 L 280 396 L 281 396 L 283 394 L 286 394 L 290 390 L 293 390 L 296 387 L 298 387 L 300 385 L 301 385 L 302 384 L 303 384 L 303 383 L 304 382 L 307 382 L 309 380 L 310 380 L 313 377 L 315 377 L 316 376 L 317 376 L 320 373 L 321 373 L 323 371 L 324 371 L 325 370 L 326 370 L 328 368 L 329 368 L 332 365 L 333 365 L 334 364 L 335 364 L 335 363 L 336 362 L 337 362 L 338 361 L 339 361 L 341 359 L 342 359 L 344 357 L 345 357 L 349 353 L 350 353 L 352 355 L 352 356 L 354 358 L 354 361 L 355 362 L 355 363 L 356 364 L 356 365 L 357 366 L 357 368 L 359 370 L 359 371 L 360 372 L 360 374 L 361 374 L 362 375 L 362 378 L 363 379 L 363 380 L 365 382 L 365 385 L 367 387 L 367 389 L 368 390 L 368 391 L 369 392 L 369 393 L 370 394 L 370 395 L 371 396 L 371 398 L 372 399 L 372 400 L 374 402 L 374 405 L 376 407 L 376 408 L 377 409 L 377 410 L 379 412 L 379 414 L 380 415 L 380 416 L 383 419 L 386 419 L 389 422 L 391 422 L 392 423 L 393 423 L 394 424 L 395 424 L 396 425 L 397 425 L 399 427 L 402 427 L 404 429 L 405 429 L 406 430 L 408 430 L 409 431 L 410 431 L 411 432 L 412 432 L 413 433 L 415 433 L 416 434 L 418 434 L 419 435 L 421 435 L 422 436 L 425 436 L 427 438 L 429 438 L 430 439 L 434 439 L 435 440 L 436 440 L 437 441 L 440 441 L 441 442 L 444 442 L 445 443 L 448 443 L 449 444 L 453 444 L 454 445 L 455 445 L 456 446 L 459 446 L 460 447 L 469 447 L 470 448 L 473 448 L 474 449 L 481 449 L 482 450 L 489 450 L 490 449 L 496 449 L 497 448 L 499 448 L 501 446 L 502 446 L 506 442 L 505 441 L 506 440 L 507 440 Z"/>
  <path d="M 1129 259 L 1128 260 L 1123 260 L 1122 261 L 1120 261 L 1119 262 L 1118 262 L 1117 263 L 1116 263 L 1115 264 L 1114 264 L 1109 269 L 1109 270 L 1108 271 L 1108 272 L 1107 273 L 1107 275 L 1106 276 L 1106 280 L 1105 281 L 1105 284 L 1106 285 L 1106 289 L 1107 290 L 1107 292 L 1109 294 L 1109 295 L 1113 299 L 1114 299 L 1116 301 L 1117 301 L 1118 302 L 1119 302 L 1120 303 L 1122 303 L 1123 304 L 1124 304 L 1125 305 L 1128 305 L 1129 306 L 1131 306 L 1132 307 L 1134 307 L 1135 308 L 1137 308 L 1138 309 L 1140 309 L 1141 310 L 1142 310 L 1143 311 L 1144 311 L 1145 312 L 1146 312 L 1151 317 L 1151 318 L 1152 319 L 1152 320 L 1153 321 L 1153 329 L 1152 330 L 1152 332 L 1150 334 L 1150 335 L 1148 337 L 1147 337 L 1145 339 L 1144 339 L 1143 340 L 1142 340 L 1141 341 L 1137 341 L 1136 342 L 1130 342 L 1129 341 L 1126 341 L 1125 340 L 1123 340 L 1122 339 L 1121 339 L 1114 332 L 1114 331 L 1113 330 L 1113 329 L 1112 328 L 1112 325 L 1111 324 L 1111 322 L 1102 322 L 1102 326 L 1103 327 L 1103 330 L 1104 331 L 1104 333 L 1105 334 L 1105 335 L 1106 336 L 1106 337 L 1113 344 L 1114 344 L 1115 345 L 1116 345 L 1117 346 L 1118 346 L 1119 347 L 1121 347 L 1122 348 L 1126 348 L 1127 349 L 1140 349 L 1141 348 L 1144 348 L 1145 347 L 1147 347 L 1148 346 L 1149 346 L 1150 345 L 1151 345 L 1153 343 L 1154 343 L 1158 339 L 1158 338 L 1159 337 L 1159 336 L 1160 335 L 1160 334 L 1161 333 L 1161 331 L 1162 330 L 1162 320 L 1161 319 L 1161 316 L 1160 315 L 1160 314 L 1159 313 L 1159 312 L 1153 306 L 1152 306 L 1151 305 L 1150 305 L 1148 303 L 1146 303 L 1145 302 L 1144 302 L 1143 301 L 1141 301 L 1140 300 L 1138 300 L 1137 299 L 1135 299 L 1134 298 L 1132 298 L 1131 297 L 1129 297 L 1128 296 L 1126 296 L 1125 295 L 1124 295 L 1123 294 L 1122 294 L 1120 292 L 1119 292 L 1117 290 L 1117 289 L 1115 287 L 1115 284 L 1114 283 L 1114 280 L 1115 279 L 1115 277 L 1116 276 L 1116 275 L 1117 274 L 1117 273 L 1120 270 L 1121 270 L 1122 269 L 1123 269 L 1124 268 L 1126 268 L 1127 267 L 1137 267 L 1138 268 L 1140 268 L 1142 270 L 1143 270 L 1147 274 L 1147 275 L 1149 277 L 1149 279 L 1150 280 L 1150 283 L 1159 283 L 1159 279 L 1158 278 L 1158 275 L 1157 274 L 1157 273 L 1156 272 L 1156 271 L 1155 270 L 1155 269 L 1150 264 L 1149 264 L 1148 263 L 1147 263 L 1146 262 L 1145 262 L 1144 261 L 1142 261 L 1141 260 L 1136 260 L 1135 259 Z"/>
  <path d="M 1020 260 L 1019 261 L 1016 261 L 1015 262 L 1014 262 L 1013 263 L 1012 263 L 1011 264 L 1010 264 L 1009 265 L 1008 265 L 1007 266 L 1006 266 L 997 275 L 997 276 L 995 278 L 995 279 L 994 280 L 994 281 L 993 282 L 993 283 L 992 284 L 992 286 L 991 287 L 991 289 L 990 290 L 990 294 L 989 295 L 989 314 L 990 315 L 990 318 L 991 319 L 991 322 L 992 323 L 992 324 L 993 325 L 993 326 L 994 327 L 994 328 L 995 329 L 995 330 L 996 331 L 996 332 L 999 335 L 999 336 L 1003 340 L 1004 340 L 1007 343 L 1008 343 L 1009 344 L 1010 344 L 1011 345 L 1012 345 L 1013 346 L 1014 346 L 1015 347 L 1018 347 L 1019 348 L 1023 348 L 1024 349 L 1037 349 L 1038 348 L 1042 348 L 1043 347 L 1045 347 L 1046 346 L 1048 346 L 1049 345 L 1050 345 L 1051 344 L 1052 344 L 1053 343 L 1054 343 L 1057 340 L 1058 340 L 1062 336 L 1062 335 L 1065 332 L 1065 331 L 1066 330 L 1066 329 L 1067 328 L 1067 327 L 1068 326 L 1068 325 L 1069 324 L 1069 323 L 1070 322 L 1070 319 L 1071 318 L 1071 315 L 1072 314 L 1072 295 L 1071 294 L 1071 290 L 1070 289 L 1070 287 L 1069 286 L 1069 284 L 1068 283 L 1068 282 L 1067 281 L 1067 280 L 1066 279 L 1066 278 L 1064 276 L 1064 275 L 1056 267 L 1055 267 L 1053 265 L 1052 265 L 1051 264 L 1050 264 L 1049 263 L 1048 263 L 1047 262 L 1045 262 L 1044 261 L 1042 261 L 1041 260 L 1035 260 L 1034 259 L 1027 259 L 1026 260 Z M 1025 267 L 1036 267 L 1037 268 L 1040 268 L 1041 269 L 1043 269 L 1044 270 L 1045 270 L 1046 271 L 1047 271 L 1049 273 L 1050 273 L 1056 279 L 1056 280 L 1058 282 L 1058 283 L 1059 284 L 1059 285 L 1060 286 L 1060 287 L 1061 288 L 1061 290 L 1062 291 L 1062 294 L 1063 295 L 1063 313 L 1062 314 L 1062 317 L 1061 318 L 1061 320 L 1060 321 L 1060 323 L 1059 324 L 1059 325 L 1057 327 L 1057 328 L 1048 337 L 1047 337 L 1046 338 L 1045 338 L 1044 339 L 1042 339 L 1041 340 L 1039 340 L 1038 341 L 1023 341 L 1022 340 L 1020 340 L 1019 339 L 1017 339 L 1016 338 L 1015 338 L 1014 337 L 1013 337 L 1004 328 L 1004 327 L 1002 325 L 1002 324 L 1001 323 L 1001 321 L 1000 320 L 1000 319 L 999 318 L 999 314 L 998 313 L 998 295 L 999 294 L 999 291 L 1000 290 L 1000 288 L 1001 287 L 1001 286 L 1002 285 L 1002 284 L 1003 283 L 1003 282 L 1005 280 L 1005 279 L 1011 273 L 1012 273 L 1014 271 L 1015 271 L 1016 270 L 1017 270 L 1018 269 L 1020 269 L 1021 268 L 1024 268 Z"/>
  <path d="M 699 270 L 698 271 L 698 272 L 694 276 L 694 277 L 693 278 L 693 279 L 692 280 L 692 281 L 691 282 L 691 283 L 690 284 L 690 286 L 689 287 L 689 289 L 688 290 L 688 293 L 687 294 L 687 314 L 688 315 L 688 319 L 689 320 L 689 322 L 690 323 L 690 325 L 691 326 L 691 327 L 692 328 L 692 329 L 693 330 L 693 331 L 695 333 L 695 334 L 703 342 L 704 342 L 706 344 L 707 344 L 708 345 L 709 345 L 710 346 L 712 346 L 713 347 L 715 347 L 716 348 L 720 348 L 721 349 L 734 349 L 735 348 L 739 348 L 740 347 L 742 347 L 743 346 L 744 346 L 745 345 L 746 345 L 748 343 L 749 343 L 755 337 L 755 336 L 757 334 L 758 335 L 758 347 L 759 348 L 766 348 L 766 302 L 731 302 L 731 309 L 756 309 L 757 310 L 757 316 L 756 317 L 756 320 L 755 321 L 755 322 L 754 323 L 754 325 L 753 326 L 753 327 L 751 329 L 751 330 L 744 337 L 743 337 L 742 338 L 741 338 L 740 339 L 739 339 L 738 340 L 735 340 L 734 341 L 721 341 L 720 340 L 717 340 L 716 339 L 715 339 L 714 338 L 713 338 L 712 337 L 711 337 L 708 334 L 707 334 L 704 331 L 704 330 L 702 328 L 702 327 L 700 325 L 700 324 L 699 323 L 699 322 L 698 321 L 698 319 L 697 318 L 697 314 L 696 313 L 696 295 L 697 294 L 697 291 L 698 290 L 698 288 L 699 287 L 699 286 L 700 285 L 700 284 L 701 283 L 701 282 L 703 280 L 703 279 L 709 273 L 710 273 L 712 271 L 713 271 L 714 270 L 716 270 L 717 269 L 719 269 L 720 268 L 724 268 L 725 267 L 732 267 L 733 268 L 737 268 L 738 269 L 740 269 L 741 270 L 742 270 L 743 271 L 744 271 L 746 273 L 747 273 L 751 277 L 751 278 L 753 280 L 753 282 L 754 283 L 754 285 L 755 286 L 765 286 L 765 285 L 764 284 L 764 281 L 763 280 L 763 279 L 762 278 L 762 277 L 761 276 L 761 275 L 759 273 L 759 272 L 753 266 L 752 266 L 751 265 L 750 265 L 748 263 L 746 263 L 745 262 L 744 262 L 743 261 L 740 261 L 739 260 L 733 260 L 732 259 L 725 259 L 724 260 L 718 260 L 717 261 L 714 261 L 713 262 L 712 262 L 711 263 L 709 263 L 708 264 L 707 264 L 705 266 L 704 266 L 700 270 Z"/>
  <path d="M 535 259 L 534 260 L 529 260 L 528 261 L 526 261 L 525 262 L 524 262 L 523 263 L 522 263 L 521 264 L 520 264 L 515 269 L 515 270 L 514 271 L 514 272 L 513 273 L 513 275 L 512 276 L 512 280 L 511 281 L 511 284 L 512 285 L 512 289 L 513 290 L 513 292 L 515 294 L 515 295 L 519 299 L 520 299 L 522 301 L 523 301 L 524 302 L 525 302 L 526 303 L 528 303 L 529 304 L 530 304 L 531 305 L 534 305 L 535 306 L 537 306 L 538 307 L 540 307 L 541 308 L 543 308 L 544 309 L 546 309 L 547 310 L 548 310 L 549 311 L 550 311 L 551 312 L 552 312 L 557 317 L 557 318 L 558 319 L 558 320 L 559 321 L 559 329 L 558 330 L 558 332 L 556 334 L 556 335 L 554 337 L 553 337 L 551 339 L 550 339 L 549 340 L 548 340 L 547 341 L 543 341 L 542 342 L 536 342 L 535 341 L 532 341 L 531 340 L 529 340 L 528 339 L 527 339 L 520 332 L 520 331 L 519 330 L 519 329 L 518 328 L 518 325 L 517 324 L 517 322 L 508 322 L 508 326 L 509 327 L 509 330 L 510 331 L 510 333 L 511 334 L 511 335 L 512 336 L 512 337 L 519 344 L 520 344 L 521 345 L 522 345 L 523 346 L 524 346 L 525 347 L 527 347 L 528 348 L 532 348 L 533 349 L 546 349 L 547 348 L 550 348 L 551 347 L 553 347 L 554 346 L 555 346 L 556 345 L 557 345 L 559 343 L 560 343 L 564 339 L 564 338 L 565 337 L 565 336 L 566 335 L 566 334 L 567 333 L 567 331 L 568 330 L 568 320 L 567 319 L 567 316 L 566 315 L 566 314 L 565 313 L 565 312 L 559 306 L 558 306 L 557 305 L 556 305 L 554 303 L 552 303 L 551 302 L 550 302 L 549 301 L 547 301 L 546 300 L 544 300 L 543 299 L 541 299 L 540 298 L 538 298 L 537 297 L 535 297 L 534 296 L 532 296 L 531 295 L 530 295 L 529 294 L 528 294 L 526 292 L 525 292 L 523 290 L 523 289 L 521 287 L 521 284 L 520 283 L 520 280 L 521 279 L 521 277 L 522 276 L 522 275 L 523 274 L 523 273 L 526 270 L 527 270 L 528 269 L 529 269 L 530 268 L 532 268 L 533 267 L 543 267 L 544 268 L 546 268 L 548 270 L 549 270 L 553 274 L 553 275 L 555 277 L 555 279 L 556 280 L 556 283 L 565 283 L 565 279 L 564 278 L 564 275 L 563 274 L 563 273 L 562 272 L 562 271 L 561 270 L 561 269 L 556 264 L 555 264 L 554 263 L 553 263 L 552 262 L 551 262 L 550 261 L 548 261 L 547 260 L 542 260 L 541 259 Z"/>
  <path d="M 955 81 L 954 82 L 954 84 L 953 85 L 953 87 L 952 88 L 952 89 L 951 90 L 951 92 L 950 93 L 950 95 L 949 96 L 949 98 L 948 99 L 948 100 L 947 101 L 947 103 L 946 104 L 946 106 L 945 107 L 945 109 L 944 110 L 944 111 L 943 112 L 943 114 L 942 115 L 942 117 L 941 118 L 941 120 L 940 121 L 940 122 L 939 123 L 939 125 L 938 126 L 938 128 L 937 129 L 937 131 L 936 132 L 936 133 L 935 134 L 935 136 L 934 137 L 934 139 L 933 140 L 933 142 L 932 143 L 932 144 L 931 145 L 931 147 L 930 148 L 930 150 L 929 151 L 929 153 L 928 154 L 928 155 L 927 156 L 927 158 L 926 159 L 926 161 L 925 162 L 925 164 L 924 165 L 924 166 L 923 167 L 923 169 L 922 170 L 922 172 L 921 173 L 921 175 L 920 176 L 920 177 L 919 178 L 919 180 L 918 181 L 918 183 L 917 184 L 917 186 L 916 187 L 916 188 L 915 189 L 915 191 L 914 192 L 914 194 L 913 195 L 913 197 L 912 198 L 912 199 L 911 200 L 911 202 L 910 203 L 910 205 L 909 206 L 909 208 L 908 209 L 908 210 L 907 211 L 907 213 L 906 214 L 906 216 L 905 217 L 905 219 L 904 220 L 904 221 L 903 222 L 903 224 L 932 224 L 933 223 L 933 222 L 934 221 L 934 219 L 935 218 L 935 216 L 936 215 L 936 213 L 937 212 L 937 211 L 938 210 L 938 208 L 939 207 L 939 205 L 940 204 L 940 202 L 941 201 L 941 199 L 942 198 L 942 196 L 943 195 L 943 193 L 944 192 L 997 192 L 999 194 L 999 196 L 1000 197 L 1000 199 L 1001 200 L 1001 201 L 1002 202 L 1002 204 L 1003 205 L 1003 207 L 1004 208 L 1004 210 L 1005 211 L 1005 213 L 1006 214 L 1006 216 L 1007 217 L 1007 219 L 1008 220 L 1008 222 L 1009 223 L 1009 224 L 1039 224 L 1039 221 L 1038 220 L 1038 219 L 1037 218 L 1037 216 L 1036 215 L 1036 213 L 1035 212 L 1035 210 L 1034 209 L 1034 208 L 1033 207 L 1033 205 L 1032 204 L 1032 202 L 1031 201 L 1031 199 L 1030 198 L 1030 197 L 1029 196 L 1029 194 L 1028 193 L 1028 191 L 1027 190 L 1027 188 L 1026 187 L 1026 186 L 1025 185 L 1025 183 L 1024 182 L 1024 180 L 1023 179 L 1023 177 L 1022 176 L 1022 175 L 1021 174 L 1021 172 L 1020 171 L 1020 169 L 1019 168 L 1019 166 L 1018 165 L 1018 164 L 1017 163 L 1017 161 L 1016 160 L 1016 158 L 1015 157 L 1015 155 L 1014 154 L 1014 153 L 1013 152 L 1013 150 L 1012 149 L 1012 147 L 1011 146 L 1011 144 L 1010 143 L 1010 142 L 1009 141 L 1009 139 L 1008 138 L 1008 136 L 1007 135 L 1007 133 L 1006 132 L 1006 131 L 1005 130 L 1005 128 L 1004 127 L 1004 125 L 1003 124 L 1003 122 L 1002 121 L 1002 120 L 1001 119 L 1001 117 L 1000 116 L 1000 114 L 999 113 L 999 112 L 998 111 L 998 109 L 997 108 L 997 106 L 996 105 L 996 103 L 995 102 L 995 101 L 994 100 L 994 98 L 993 97 L 993 95 L 992 94 L 992 92 L 991 91 L 991 90 L 990 89 L 990 87 L 989 86 L 989 84 L 988 83 L 988 81 Z M 971 115 L 972 116 L 972 118 L 973 119 L 973 121 L 974 122 L 974 123 L 975 124 L 975 126 L 976 127 L 976 129 L 977 130 L 977 132 L 978 133 L 978 135 L 979 136 L 979 138 L 980 139 L 980 141 L 981 142 L 981 144 L 982 145 L 982 147 L 983 148 L 983 149 L 984 150 L 984 152 L 985 153 L 985 155 L 986 156 L 986 158 L 987 159 L 987 161 L 988 162 L 988 164 L 989 165 L 989 167 L 990 168 L 989 169 L 953 169 L 952 168 L 952 167 L 953 166 L 953 164 L 954 163 L 954 162 L 955 161 L 955 159 L 956 158 L 956 156 L 957 155 L 957 153 L 958 152 L 958 150 L 959 149 L 959 147 L 960 146 L 960 144 L 961 143 L 961 141 L 962 140 L 962 139 L 963 138 L 963 136 L 964 135 L 964 133 L 965 132 L 965 130 L 966 129 L 966 127 L 967 126 L 967 124 L 968 123 L 968 121 L 969 120 L 969 118 L 970 117 L 970 116 Z"/>
  <path d="M 625 81 L 624 82 L 624 84 L 623 85 L 623 87 L 622 88 L 622 89 L 621 90 L 621 92 L 620 93 L 620 95 L 619 96 L 619 98 L 618 99 L 618 100 L 617 101 L 617 103 L 616 104 L 616 106 L 615 107 L 615 109 L 614 110 L 614 111 L 613 112 L 613 114 L 612 115 L 612 117 L 611 118 L 611 120 L 610 121 L 610 122 L 609 123 L 609 125 L 608 126 L 608 128 L 607 129 L 607 131 L 606 132 L 606 133 L 605 134 L 605 136 L 604 137 L 604 139 L 603 140 L 603 142 L 602 143 L 602 144 L 601 145 L 601 147 L 600 148 L 600 150 L 599 151 L 599 153 L 598 154 L 598 155 L 597 156 L 597 158 L 596 159 L 596 161 L 595 162 L 595 164 L 594 165 L 594 166 L 593 167 L 593 169 L 592 170 L 592 172 L 591 173 L 591 175 L 590 176 L 590 177 L 589 178 L 589 180 L 588 181 L 588 183 L 587 184 L 587 186 L 586 187 L 586 188 L 585 189 L 585 191 L 584 192 L 584 194 L 583 195 L 583 197 L 582 198 L 582 199 L 581 200 L 581 202 L 580 203 L 580 205 L 579 206 L 579 208 L 578 209 L 578 210 L 577 211 L 577 213 L 576 214 L 576 216 L 575 217 L 575 219 L 574 220 L 574 221 L 573 222 L 573 224 L 602 224 L 603 223 L 603 222 L 604 221 L 604 219 L 605 218 L 605 216 L 606 215 L 606 213 L 607 212 L 607 211 L 608 210 L 608 208 L 609 207 L 609 205 L 610 204 L 610 202 L 611 201 L 611 199 L 612 198 L 612 196 L 613 195 L 613 193 L 614 192 L 667 192 L 669 194 L 669 196 L 670 197 L 670 199 L 671 200 L 671 201 L 672 202 L 672 204 L 673 205 L 673 207 L 674 208 L 674 210 L 675 211 L 675 213 L 676 214 L 676 216 L 677 217 L 677 219 L 678 220 L 678 222 L 679 223 L 679 224 L 709 224 L 709 221 L 708 220 L 708 219 L 707 218 L 707 216 L 706 215 L 706 213 L 705 212 L 705 210 L 704 209 L 704 208 L 703 207 L 703 205 L 702 204 L 702 202 L 701 201 L 701 199 L 700 198 L 700 197 L 699 196 L 699 194 L 698 193 L 698 191 L 697 190 L 697 188 L 696 187 L 696 186 L 695 185 L 695 183 L 694 182 L 694 180 L 693 179 L 693 177 L 692 176 L 692 175 L 691 174 L 691 172 L 690 171 L 690 169 L 689 168 L 689 166 L 688 165 L 688 164 L 687 163 L 687 161 L 686 160 L 686 158 L 685 157 L 685 155 L 684 154 L 684 153 L 683 152 L 683 150 L 682 149 L 682 147 L 681 146 L 681 144 L 680 143 L 680 142 L 679 141 L 679 139 L 678 138 L 678 136 L 677 135 L 677 133 L 676 132 L 676 131 L 675 130 L 675 128 L 674 127 L 674 125 L 673 124 L 673 122 L 672 121 L 672 120 L 671 119 L 671 117 L 670 116 L 670 114 L 669 113 L 669 112 L 668 111 L 668 109 L 667 108 L 667 106 L 666 105 L 666 103 L 665 102 L 665 101 L 664 100 L 664 98 L 663 97 L 663 95 L 662 94 L 662 92 L 661 91 L 661 90 L 660 89 L 660 87 L 659 86 L 659 84 L 658 83 L 658 81 Z M 641 115 L 642 116 L 642 118 L 643 119 L 643 121 L 644 122 L 644 123 L 645 124 L 645 126 L 646 127 L 646 129 L 647 130 L 647 132 L 648 133 L 648 135 L 649 136 L 649 138 L 650 139 L 650 141 L 651 142 L 651 144 L 652 145 L 652 147 L 653 148 L 653 149 L 654 150 L 654 152 L 655 153 L 655 155 L 656 156 L 656 158 L 657 159 L 657 161 L 658 162 L 658 164 L 659 165 L 659 167 L 660 168 L 659 169 L 623 169 L 622 168 L 622 167 L 623 166 L 623 164 L 624 163 L 624 162 L 625 161 L 625 159 L 626 158 L 626 156 L 627 155 L 627 153 L 628 152 L 628 150 L 629 149 L 629 147 L 630 146 L 630 144 L 631 143 L 631 141 L 632 140 L 632 139 L 633 138 L 633 136 L 634 135 L 634 133 L 635 132 L 635 130 L 636 129 L 636 127 L 637 126 L 637 124 L 638 123 L 638 121 L 639 120 L 639 118 L 640 117 L 640 116 Z"/>
  <path d="M 789 80 L 788 81 L 786 81 L 785 82 L 783 82 L 782 83 L 780 83 L 779 84 L 778 84 L 777 85 L 776 85 L 774 87 L 773 87 L 771 89 L 770 89 L 764 95 L 764 96 L 762 98 L 762 99 L 761 100 L 761 101 L 760 102 L 760 103 L 759 104 L 759 106 L 758 107 L 758 110 L 757 111 L 757 128 L 758 129 L 758 132 L 759 133 L 759 135 L 760 136 L 760 137 L 761 138 L 761 139 L 763 141 L 763 142 L 769 148 L 770 148 L 773 151 L 774 151 L 775 152 L 776 152 L 778 154 L 779 154 L 780 155 L 782 155 L 783 156 L 784 156 L 785 157 L 786 157 L 787 158 L 789 158 L 790 159 L 792 159 L 793 160 L 795 160 L 796 161 L 798 161 L 799 162 L 801 162 L 802 163 L 804 163 L 805 164 L 807 164 L 808 165 L 809 165 L 810 166 L 812 166 L 813 167 L 814 167 L 815 168 L 816 168 L 818 170 L 819 170 L 821 172 L 822 172 L 825 175 L 825 176 L 827 178 L 827 180 L 828 181 L 828 190 L 827 191 L 827 192 L 826 193 L 826 194 L 822 198 L 821 198 L 819 200 L 818 200 L 817 201 L 814 201 L 813 202 L 802 202 L 801 201 L 799 201 L 798 200 L 797 200 L 796 199 L 795 199 L 794 198 L 793 198 L 788 193 L 788 192 L 786 190 L 786 188 L 785 187 L 785 185 L 784 184 L 784 181 L 754 181 L 754 188 L 755 189 L 755 193 L 756 194 L 756 196 L 757 197 L 757 199 L 758 200 L 758 201 L 759 202 L 759 203 L 761 205 L 761 206 L 771 216 L 772 216 L 774 218 L 775 218 L 776 219 L 777 219 L 778 220 L 779 220 L 780 221 L 782 221 L 783 222 L 784 222 L 785 223 L 788 223 L 789 224 L 792 224 L 793 225 L 799 225 L 800 226 L 816 226 L 817 225 L 823 225 L 824 224 L 827 224 L 828 223 L 830 223 L 831 222 L 832 222 L 833 221 L 834 221 L 835 220 L 836 220 L 837 219 L 838 219 L 839 218 L 840 218 L 842 216 L 843 216 L 851 208 L 851 207 L 853 205 L 853 204 L 854 203 L 854 202 L 855 201 L 855 200 L 856 199 L 856 197 L 857 196 L 857 193 L 858 192 L 858 173 L 857 172 L 857 170 L 856 169 L 856 167 L 855 166 L 855 165 L 854 164 L 854 163 L 852 161 L 852 160 L 845 153 L 844 153 L 842 151 L 841 151 L 839 149 L 838 149 L 837 148 L 836 148 L 835 147 L 834 147 L 833 146 L 832 146 L 831 145 L 830 145 L 829 144 L 827 144 L 826 143 L 825 143 L 824 142 L 822 142 L 821 141 L 819 141 L 818 140 L 816 140 L 815 139 L 813 139 L 812 138 L 810 138 L 809 137 L 807 137 L 806 136 L 805 136 L 804 135 L 802 135 L 801 134 L 800 134 L 799 133 L 798 133 L 797 132 L 796 132 L 794 130 L 793 130 L 789 126 L 789 125 L 788 124 L 788 123 L 787 122 L 787 113 L 788 112 L 788 111 L 790 109 L 790 108 L 791 107 L 792 107 L 794 105 L 795 105 L 796 104 L 797 104 L 798 103 L 811 103 L 812 104 L 813 104 L 814 105 L 815 105 L 817 107 L 818 107 L 821 110 L 821 111 L 823 113 L 823 114 L 824 115 L 824 120 L 855 120 L 855 113 L 854 112 L 854 109 L 853 108 L 853 106 L 852 105 L 852 104 L 851 103 L 851 102 L 850 101 L 850 100 L 849 99 L 849 98 L 847 96 L 847 95 L 841 89 L 840 89 L 838 87 L 837 87 L 835 85 L 834 85 L 833 84 L 832 84 L 831 83 L 829 83 L 828 82 L 826 82 L 825 81 L 823 81 L 822 80 L 818 80 L 817 79 L 794 79 L 793 80 Z"/>
  <path d="M 315 18 L 314 18 L 312 16 L 311 16 L 310 15 L 309 15 L 308 14 L 307 14 L 306 13 L 303 13 L 302 12 L 299 12 L 298 11 L 296 11 L 295 10 L 291 10 L 290 9 L 284 9 L 283 8 L 280 8 L 279 7 L 276 7 L 275 6 L 236 6 L 235 7 L 227 7 L 225 9 L 219 9 L 218 10 L 213 10 L 212 11 L 211 11 L 210 12 L 208 12 L 207 13 L 203 13 L 201 15 L 199 15 L 197 17 L 196 17 L 195 18 L 193 18 L 189 22 L 189 25 L 188 26 L 187 26 L 187 28 L 186 29 L 186 30 L 185 31 L 185 32 L 184 33 L 184 35 L 183 36 L 183 37 L 181 39 L 181 41 L 180 42 L 180 43 L 179 44 L 179 46 L 178 47 L 178 49 L 176 51 L 176 52 L 175 53 L 175 55 L 174 56 L 174 58 L 173 59 L 173 60 L 171 62 L 171 64 L 170 65 L 170 66 L 169 67 L 169 69 L 167 71 L 167 73 L 166 74 L 166 75 L 165 76 L 165 77 L 164 78 L 164 79 L 163 80 L 163 81 L 162 82 L 162 83 L 161 84 L 161 87 L 160 88 L 160 89 L 158 91 L 158 92 L 157 93 L 157 95 L 155 97 L 155 99 L 154 100 L 154 102 L 153 103 L 153 104 L 152 105 L 152 107 L 150 109 L 150 111 L 149 112 L 149 113 L 148 114 L 148 115 L 147 116 L 147 117 L 146 118 L 146 119 L 144 121 L 144 125 L 142 127 L 142 128 L 141 129 L 141 131 L 139 133 L 139 135 L 138 136 L 138 137 L 137 138 L 137 140 L 135 142 L 135 145 L 133 147 L 133 149 L 132 150 L 132 152 L 131 153 L 130 153 L 130 155 L 129 156 L 129 157 L 127 159 L 127 162 L 125 164 L 125 166 L 124 167 L 124 169 L 122 171 L 122 172 L 121 173 L 121 175 L 120 176 L 120 178 L 119 179 L 119 180 L 118 181 L 118 182 L 117 183 L 117 184 L 116 185 L 116 186 L 115 187 L 115 190 L 114 191 L 113 191 L 113 193 L 112 194 L 112 196 L 111 197 L 111 198 L 110 199 L 110 200 L 109 201 L 109 202 L 108 203 L 108 204 L 107 205 L 107 206 L 106 207 L 106 208 L 105 209 L 105 210 L 104 211 L 104 213 L 103 214 L 103 215 L 102 216 L 102 217 L 101 218 L 101 219 L 100 220 L 100 222 L 99 223 L 99 224 L 97 226 L 97 228 L 96 229 L 96 231 L 94 233 L 95 234 L 93 236 L 93 237 L 92 238 L 92 240 L 91 241 L 91 242 L 90 243 L 90 245 L 88 247 L 88 248 L 87 249 L 87 251 L 85 253 L 85 254 L 84 255 L 84 257 L 83 258 L 83 259 L 82 260 L 82 261 L 81 262 L 81 263 L 80 264 L 80 265 L 79 266 L 79 268 L 77 270 L 77 271 L 76 272 L 76 274 L 75 275 L 75 277 L 74 278 L 74 279 L 73 280 L 73 281 L 72 282 L 72 283 L 71 284 L 71 285 L 70 286 L 70 288 L 68 290 L 68 292 L 67 293 L 67 295 L 66 296 L 66 297 L 64 299 L 64 300 L 63 301 L 63 303 L 61 305 L 61 306 L 60 307 L 60 308 L 59 309 L 59 311 L 58 312 L 58 314 L 57 315 L 56 315 L 56 317 L 55 318 L 55 320 L 54 321 L 54 322 L 53 323 L 53 324 L 52 325 L 52 326 L 51 327 L 51 328 L 50 329 L 50 330 L 49 331 L 49 332 L 48 333 L 48 335 L 47 336 L 47 338 L 46 339 L 46 340 L 45 341 L 45 342 L 44 343 L 44 344 L 43 345 L 43 346 L 42 347 L 42 349 L 40 351 L 40 353 L 39 354 L 39 355 L 38 356 L 38 358 L 37 359 L 37 360 L 35 362 L 35 364 L 34 365 L 34 366 L 33 367 L 33 370 L 32 371 L 31 371 L 31 373 L 30 374 L 30 375 L 28 377 L 28 379 L 27 380 L 27 381 L 26 382 L 26 384 L 25 385 L 25 387 L 23 389 L 23 390 L 22 391 L 22 393 L 21 394 L 21 395 L 19 397 L 19 399 L 18 400 L 18 401 L 17 402 L 17 404 L 16 405 L 16 406 L 14 408 L 14 409 L 13 410 L 13 411 L 12 412 L 12 413 L 11 414 L 11 415 L 10 416 L 10 418 L 9 419 L 9 420 L 7 422 L 7 424 L 6 425 L 6 432 L 7 433 L 7 435 L 8 436 L 13 436 L 15 434 L 15 433 L 18 430 L 19 430 L 19 429 L 21 427 L 22 427 L 24 425 L 24 424 L 26 422 L 27 422 L 28 421 L 28 420 L 29 419 L 31 419 L 33 417 L 33 416 L 34 415 L 35 415 L 37 413 L 38 413 L 41 410 L 42 410 L 42 409 L 45 406 L 46 406 L 48 404 L 49 404 L 49 403 L 50 402 L 51 402 L 52 401 L 53 401 L 57 397 L 58 397 L 61 394 L 62 394 L 66 390 L 68 390 L 71 387 L 72 387 L 75 384 L 76 384 L 79 381 L 80 381 L 83 378 L 84 378 L 85 377 L 86 377 L 90 373 L 91 373 L 92 372 L 93 372 L 95 370 L 97 370 L 100 367 L 101 367 L 103 365 L 105 365 L 108 362 L 109 362 L 111 360 L 112 360 L 113 359 L 114 359 L 115 358 L 116 358 L 117 357 L 118 357 L 122 353 L 123 353 L 124 352 L 126 352 L 129 349 L 130 349 L 131 348 L 132 348 L 133 347 L 134 347 L 135 346 L 136 346 L 137 345 L 138 345 L 139 344 L 140 344 L 142 342 L 143 342 L 145 340 L 147 340 L 148 339 L 149 339 L 152 336 L 154 336 L 155 335 L 156 335 L 158 333 L 159 333 L 160 332 L 161 332 L 162 331 L 164 331 L 165 330 L 166 330 L 168 328 L 171 328 L 174 325 L 176 325 L 178 323 L 180 323 L 181 322 L 182 322 L 183 321 L 184 321 L 185 320 L 186 320 L 187 319 L 188 319 L 189 318 L 190 318 L 191 317 L 192 317 L 193 316 L 194 316 L 195 315 L 197 315 L 199 313 L 200 313 L 201 312 L 203 312 L 204 311 L 206 311 L 207 310 L 208 310 L 208 309 L 209 308 L 212 308 L 213 307 L 214 307 L 215 306 L 216 306 L 217 305 L 219 305 L 221 303 L 223 303 L 224 302 L 226 302 L 227 301 L 228 301 L 229 300 L 230 300 L 231 299 L 233 299 L 234 298 L 235 298 L 236 297 L 237 297 L 238 296 L 241 296 L 242 295 L 243 295 L 244 294 L 246 294 L 248 292 L 250 292 L 251 291 L 254 291 L 255 290 L 256 290 L 257 289 L 258 289 L 259 288 L 262 288 L 263 287 L 265 287 L 266 286 L 268 286 L 269 285 L 271 285 L 272 284 L 273 284 L 274 283 L 278 283 L 279 282 L 282 282 L 283 281 L 284 281 L 285 280 L 287 280 L 288 279 L 291 279 L 292 278 L 294 278 L 295 277 L 297 277 L 298 276 L 301 276 L 302 275 L 304 275 L 305 274 L 309 274 L 310 273 L 311 273 L 312 272 L 315 272 L 316 271 L 319 271 L 320 270 L 323 270 L 324 269 L 326 269 L 327 268 L 332 268 L 333 267 L 336 267 L 337 266 L 342 266 L 343 265 L 345 265 L 346 264 L 348 264 L 349 263 L 353 263 L 354 262 L 357 262 L 358 261 L 361 261 L 362 260 L 366 260 L 367 259 L 372 259 L 373 258 L 377 258 L 378 257 L 379 258 L 380 257 L 386 257 L 387 256 L 390 256 L 391 255 L 396 255 L 397 254 L 407 254 L 408 253 L 413 253 L 414 252 L 419 252 L 419 251 L 420 250 L 420 248 L 419 247 L 419 246 L 417 244 L 417 242 L 416 241 L 416 240 L 415 239 L 415 238 L 414 237 L 414 236 L 413 235 L 413 233 L 412 232 L 412 231 L 411 230 L 411 229 L 410 228 L 410 227 L 409 226 L 409 224 L 408 223 L 408 221 L 406 219 L 406 218 L 405 217 L 405 215 L 404 214 L 404 213 L 403 212 L 403 211 L 402 210 L 402 209 L 401 208 L 401 207 L 400 206 L 400 204 L 397 201 L 397 198 L 396 197 L 396 196 L 395 195 L 395 194 L 394 193 L 394 191 L 393 190 L 393 189 L 392 188 L 392 187 L 391 186 L 391 184 L 389 182 L 389 180 L 388 179 L 388 178 L 386 176 L 386 174 L 385 173 L 385 171 L 384 170 L 384 169 L 383 168 L 383 166 L 381 164 L 381 162 L 380 161 L 380 160 L 379 159 L 379 158 L 378 157 L 378 155 L 377 154 L 377 153 L 374 150 L 374 149 L 373 148 L 373 145 L 372 144 L 372 142 L 371 141 L 371 140 L 369 138 L 369 137 L 368 136 L 368 133 L 366 131 L 366 130 L 365 129 L 365 128 L 364 127 L 364 125 L 363 124 L 363 123 L 362 122 L 362 121 L 360 119 L 360 116 L 359 115 L 359 114 L 358 113 L 358 112 L 356 110 L 356 108 L 355 107 L 355 106 L 354 105 L 354 104 L 353 103 L 353 102 L 352 101 L 352 99 L 351 98 L 351 96 L 350 96 L 349 95 L 349 92 L 348 91 L 348 90 L 347 89 L 347 88 L 346 87 L 346 86 L 345 85 L 345 84 L 344 83 L 344 81 L 343 80 L 343 78 L 342 78 L 341 77 L 341 76 L 340 75 L 340 72 L 339 71 L 339 70 L 338 69 L 338 68 L 337 67 L 337 66 L 336 65 L 336 64 L 335 63 L 335 61 L 334 60 L 334 59 L 332 57 L 332 55 L 331 54 L 331 52 L 329 50 L 329 47 L 327 45 L 327 43 L 326 42 L 326 41 L 324 39 L 324 38 L 323 37 L 323 34 L 322 33 L 322 32 L 321 31 L 321 30 L 320 29 L 320 27 L 319 26 L 319 24 L 318 23 L 318 21 Z M 255 144 L 256 145 L 256 147 L 258 149 L 258 150 L 259 151 L 259 152 L 260 153 L 260 156 L 262 158 L 262 159 L 263 160 L 263 162 L 264 163 L 264 164 L 266 166 L 266 168 L 267 169 L 267 170 L 268 171 L 268 174 L 269 174 L 270 175 L 270 177 L 271 178 L 271 180 L 272 181 L 272 182 L 274 184 L 274 186 L 275 187 L 275 188 L 276 189 L 276 191 L 277 192 L 277 193 L 279 195 L 279 197 L 280 198 L 280 200 L 282 202 L 282 203 L 283 204 L 283 206 L 284 207 L 284 208 L 286 210 L 286 211 L 287 212 L 287 214 L 288 215 L 288 217 L 291 220 L 291 223 L 292 224 L 292 225 L 293 226 L 293 228 L 295 230 L 295 231 L 296 232 L 296 234 L 297 235 L 297 237 L 299 239 L 299 240 L 300 241 L 300 243 L 301 244 L 301 245 L 302 246 L 302 247 L 303 248 L 303 250 L 305 252 L 305 254 L 306 255 L 305 256 L 303 256 L 302 257 L 301 257 L 300 258 L 298 258 L 297 259 L 292 259 L 291 260 L 289 260 L 288 261 L 286 261 L 285 262 L 283 262 L 282 263 L 279 263 L 278 264 L 274 264 L 273 265 L 271 265 L 270 266 L 269 266 L 268 267 L 265 267 L 264 268 L 261 268 L 260 269 L 258 269 L 257 270 L 256 270 L 255 271 L 252 271 L 251 272 L 249 272 L 248 273 L 246 273 L 244 275 L 242 275 L 241 276 L 238 276 L 237 277 L 235 277 L 233 279 L 230 279 L 229 280 L 227 280 L 226 281 L 223 281 L 221 283 L 220 283 L 219 284 L 217 284 L 216 285 L 214 285 L 212 287 L 210 287 L 209 288 L 207 288 L 206 289 L 204 289 L 202 291 L 200 291 L 199 292 L 198 292 L 197 293 L 194 293 L 191 296 L 190 296 L 189 295 L 189 294 L 190 293 L 190 292 L 192 290 L 192 289 L 193 288 L 193 285 L 194 284 L 194 283 L 196 281 L 196 279 L 197 278 L 197 277 L 198 276 L 198 274 L 200 272 L 200 271 L 201 270 L 201 268 L 202 267 L 202 265 L 204 263 L 204 261 L 205 260 L 205 258 L 206 257 L 206 256 L 208 254 L 208 251 L 209 250 L 209 249 L 210 248 L 210 246 L 212 244 L 212 243 L 213 242 L 213 240 L 214 239 L 214 238 L 216 236 L 216 233 L 217 232 L 217 231 L 218 230 L 218 228 L 219 227 L 219 226 L 221 224 L 221 222 L 222 221 L 222 219 L 224 217 L 224 216 L 225 215 L 225 213 L 226 212 L 226 210 L 227 209 L 227 207 L 229 205 L 229 203 L 230 202 L 230 200 L 231 199 L 231 198 L 233 196 L 233 193 L 234 192 L 234 191 L 235 190 L 235 187 L 237 185 L 237 184 L 238 183 L 238 181 L 239 180 L 239 179 L 241 177 L 241 175 L 242 174 L 242 173 L 243 172 L 243 170 L 245 168 L 245 166 L 246 165 L 246 163 L 247 162 L 247 160 L 249 158 L 249 157 L 250 156 L 250 153 L 251 152 L 251 151 L 253 149 L 253 146 Z"/>
</g>
</svg>